# xmcd
#
# Track frame offsets:
#	150
#	12228
#	21715
#	31693
#	44163
#	56095
#	70295
#	83068
#	95853
#	108875
#
# Disc length: 1643 seconds
#
# Revision: 6
# Processed by: cddbd v1.5.2PL0 Copyright (c) Steve Scherf et al.
# Submitted via: audiograbber 1.83.01
#
DISCID=8706690a
DTITLE=Various Artist - Billboard Top Country Hits - 1968
DYEAR=1900
DGENRE=Oldies
TTITLE0=Tammy Wynette - Stand By Your Man
TTITLE1=Sonny James - Heaven Says Hello
TTITLE2=Merle Haggard and The Strangers - Mama Tried
TTITLE3=Johnny Cash - Folsom Prison Blues
TTITLE4=Henson Cargill - Skip A Rope
TTITLE5=Glen Campbell - Wichita Lineman
TTITLE6=Eddy Arnold - Then You Can Tell Me Goodbye
TTITLE7=Merle Haggard and The Strangers - Sing Me Back Home
TTITLE8=Conway Twitty - Next In Line
TTITLE9=Jeannie C. Riley - Harper Valley PTA
EXTD=
EXTT0=
EXTT1=
EXTT2=
EXTT3=
EXTT4=
EXTT5=
EXTT6=
EXTT7=
EXTT8=
EXTT9=
PLAYORDER=
